<?xml version="1.0" encoding="UTF-8" standalone="no"?>
<svg
        xmlns="http://www.w3.org/2000/svg"
        viewBox="0 0 24 24"
>
    <path
            d="M 9.1406401,9.5658795 11.266417,11.242096 9.8592121,7.766272 Z m 0.62739,-5.2046628 c -3.00721,0 -5.443734,2.4365244 -5.443734,5.4437336 0,3.0072087 2.436524,5.4437337 5.443734,5.4437337 3.0072089,0 5.4437329,-2.436525 5.4437329,-5.4437337 0,-3.0072092 -2.436524,-5.4437336 -5.4437329,-5.4437336 z m 2.6297759,7.8503173 c -0.005,0.213666 -0.182818,0.381969 -0.396939,0.376524 -0.10706,0 -0.188716,-0.04083 -0.301219,-0.132916 l -2.8080589,-2.268223 -0.943127,2.360312 h -0.815653 l 2.380272,-5.7181884 c 0.05625,-0.1424444 0.193707,-0.2358951 0.346585,-0.2295441 0.1478879,-0.00636 0.2857959,0.085739 0.3366029,0.2295441 l 2.165699,5.2141894 c 0.02041,0.05035 0.03629,0.106153 0.03629,0.157868 -4.54e-4,0.0041 -4.54e-4,0.0041 -4.54e-4,0.01043 z"
            style="fill:#cc0000;fill-opacity:1;stroke-width:0.453644"/>
    <path
            d="m 19.369305,9.787652 c 0,2.113902 -0.686207,4.066615 -1.842181,5.650898 l 5.830511,5.83511 c 0.575681,0.575686 0.575681,1.510591 0,2.086281 -0.575683,0.575674 -1.510588,0.575674 -2.086271,0 l -5.83051,-5.835122 c -1.584283,1.155975 -3.536997,1.842183 -5.6508981,1.842183 -5.291668,0 -9.57935204,-4.287675 -9.57935204,-9.5793501 0,-5.2916674 4.28768404,-9.5793488 9.57935204,-9.5793488 5.2916741,0 9.5793491,4.2876814 9.5793491,9.5793489 z M 9.7899559,16.41951 c 3.6613361,0 6.6318601,-2.970518 6.6318601,-6.631858 0,-3.6613377 -2.970524,-6.6318584 -6.6318601,-6.6318584 -3.661341,0 -6.63186,2.9705207 -6.63186,6.6318584 0,3.66134 2.970519,6.631858 6.63186,6.631858 z"
            style="fill:#b3b3b3;stroke-width:0.0460546"/>
</svg>
